# xmcd CD database file
#
# Track frame offsets:
#	150
#	40600
#	77025
#	104920
#	127857
#	146355
#	172630
#	213695
#
# Disc length: 3331 seconds
#
# Revision: 0
# Processed by: cddbd v1.5.2PL0 Copyright (c) Steve Scherf et al.
# Submitted via: CDex 1.70beta2
#
DISCID=640d0108
DTITLE=Eiji Nakayama - Romantic Blue
DYEAR=1993
DGENRE=Jazz
TTITLE0=Romantic Blue
TTITLE1=Quietude
TTITLE2=Last Summer
TTITLE3=Transcience
TTITLE4=Hamabe no Uta
TTITLE5=Up Up Way
TTITLE6=Once Upon A Time
TTITLE7=Prologue
EXTD=YEAR: 1993
EXTT0=
EXTT1=
EXTT2=
EXTT3=
EXTT4=
EXTT5=
EXTT6=
EXTT7=
PLAYORDER=
